<?xml version="1.0" standalone="no"?>
<!DOCTYPE svg PUBLIC "-//W3C//DTD SVG 20010904//EN"
 "http://www.w3.org/TR/2001/REC-SVG-20010904/DTD/svg10.dtd">
<svg version="1.0" xmlns="http://www.w3.org/2000/svg"
 width="200" height="60" viewBox="0 0 585.000000 1040.000000"
 preserveAspectRatio="xMidYMid meet">

<g transform="translate(0.000000,1040.000000) scale(0.100000,-0.100000)"
fill="#000000" stroke="none">
<path d="M5067 7443 c18 -2 50 -2 70 0 21 2 7 4 -32 4 -38 0 -55 -2 -38 -4z"/>
<path d="M4944 7410 c-32 -16 -72 -41 -89 -55 -23 -20 -18 -18 20 6 27 18 74
43 105 56 30 12 48 23 39 23 -9 0 -42 -13 -75 -30z"/>
<path d="M2828 7393 c7 -3 16 -2 19 1 4 3 -2 6 -13 5 -11 0 -14 -3 -6 -6z"/>
<path d="M2699 7343 c-52 -26 -103 -46 -114 -45 -14 2 -16 0 -7 -6 9 -6 -3
-19 -45 -47 -120 -79 -373 -281 -483 -385 -61 -57 -11 -18 165 130 189 159
360 280 489 345 60 30 105 55 99 55 -6 0 -53 -21 -104 -47z"/>
<path d="M4512 7370 c20 -11 52 -39 71 -62 40 -50 91 -137 85 -143 -2 -3 -20
7 -39 21 -54 41 -126 74 -156 73 -24 -1 -23 -2 8 -8 74 -15 207 -108 229 -161
10 -23 15 -28 22 -18 6 10 22 -1 61 -42 64 -68 183 -203 219 -250 15 -19 27
-32 28 -28 0 13 -151 190 -251 293 -54 56 -108 122 -122 151 -47 94 -142 195
-182 194 -5 -1 7 -10 27 -20z"/>
<path d="M2906 7309 c-248 -83 -571 -306 -861 -593 l-130 -129 123 117 c356
336 679 549 935 616 40 10 61 19 47 19 -14 0 -65 -13 -114 -30z"/>
<path d="M2464 7252 c-206 -101 -429 -327 -649 -662 -116 -175 -276 -459 -275
-487 0 -5 26 42 58 102 175 333 370 614 562 806 111 112 194 173 309 232 52
26 90 47 85 47 -6 0 -46 -17 -90 -38z"/>
<path d="M4358 7215 c76 -35 157 -101 314 -254 138 -134 138 -134 160 -208 12
-40 23 -71 25 -69 3 2 -3 28 -11 57 -9 29 -15 54 -13 56 2 1 46 -44 97 -102
52 -58 96 -105 98 -105 7 0 -19 31 -115 136 -86 94 -95 108 -127 198 -20 53
-40 104 -46 114 -14 21 -11 13 31 -101 16 -43 29 -81 29 -83 0 -3 -53 46 -117
110 -172 168 -315 276 -365 276 -7 0 11 -11 40 -25z"/>
<path d="M5139 7177 c-31 -17 -70 -43 -85 -56 l-29 -23 30 18 c17 9 47 28 67
42 20 13 54 30 75 38 22 7 30 13 18 13 -11 1 -45 -14 -76 -32z"/>
<path d="M2942 7135 c-41 -8 -125 -43 -245 -103 -100 -50 -216 -102 -258 -116
-124 -40 -210 -95 -313 -199 -146 -149 -311 -337 -356 -404 -48 -73 -87 -180
-101 -281 -6 -40 -17 -91 -25 -114 -8 -22 -14 -63 -14 -91 0 -42 -11 -71 -64
-178 -36 -70 -67 -125 -70 -121 -3 3 -6 -6 -6 -19 0 -13 -14 -67 -32 -119 -25
-77 -32 -90 -39 -72 -8 20 -23 131 -33 227 -2 22 -2 -2 0 -54 2 -51 11 -121
19 -156 15 -57 15 -68 1 -123 -9 -33 -16 -66 -15 -73 0 -8 8 15 18 49 l16 64
34 -83 c34 -83 34 -84 18 -128 -21 -58 -15 -65 7 -10 l17 42 40 -69 c22 -37
56 -90 76 -117 19 -28 41 -71 49 -97 8 -26 22 -58 33 -71 10 -13 35 -58 56
-99 57 -114 123 -209 164 -235 29 -20 140 -54 175 -55 4 0 5 12 2 26 -5 19 -3
25 6 22 23 -8 36 -51 46 -153 17 -171 74 -301 187 -423 174 -188 480 -313 864
-352 127 -12 131 -12 131 0 0 6 -22 10 -50 10 -78 0 -262 28 -384 59 -372 95
-608 277 -699 540 -25 71 -30 106 -34 201 l-4 115 34 -90 c48 -128 215 -450
260 -501 21 -23 52 -51 70 -62 37 -23 367 -114 512 -141 103 -20 254 -37 245
-28 -3 2 -50 10 -105 16 -55 7 -125 18 -155 25 l-55 13 80 -4 c44 -2 109 1
145 6 62 10 61 10 -30 5 -195 -10 -390 33 -535 118 -85 50 -252 214 -283 278
-64 134 -152 630 -152 859 0 33 -4 63 -10 66 -5 3 -10 28 -10 56 0 27 -4 49
-10 49 -6 0 -10 -80 -10 -220 0 -121 -4 -220 -9 -220 -35 0 -49 130 -25 227
10 37 11 60 4 78 -15 39 -12 115 6 169 l16 47 -37 36 c-78 76 -96 177 -48 272
19 40 38 60 71 80 64 36 108 84 143 152 30 61 132 157 194 184 77 33 217 45
600 50 701 9 650 10 739 -19 80 -26 102 -39 248 -136 70 -46 87 -64 111 -110
22 -43 27 -67 26 -110 -1 -38 5 -69 19 -100 118 -255 129 -342 58 -447 l-24
-35 -32 103 c-17 57 -36 120 -42 139 -6 19 -33 121 -59 225 -26 105 -48 183
-48 173 -2 -42 108 -456 163 -617 15 -41 26 -91 26 -112 0 -21 5 -50 10 -65
15 -40 31 -158 35 -254 2 -74 0 -88 -18 -107 -23 -26 -13 -31 14 -7 17 15 18
13 29 -28 19 -72 17 -70 44 -53 13 9 50 46 82 82 32 36 60 60 62 54 4 -13
-106 -131 -170 -182 l-36 -29 -20 42 c-28 59 -82 481 -82 640 0 26 -3 48 -7
48 -5 0 -7 -35 -5 -77 2 -73 1 -77 -14 -58 -23 29 -63 110 -91 185 -23 60 -93
318 -93 341 0 5 13 3 30 -6 46 -24 49 -17 4 10 l-42 25 -18 116 c-10 64 -20
111 -22 104 -4 -12 14 -147 25 -185 5 -17 4 -18 -9 -7 -24 19 -78 133 -99 208
-14 51 -18 58 -14 27 7 -60 39 -140 77 -197 53 -78 56 -86 82 -201 47 -202
105 -353 164 -428 25 -31 30 -49 36 -119 52 -619 192 -1156 346 -1331 43 -48
104 -87 137 -87 10 1 2 7 -18 14 -112 40 -192 159 -275 411 -36 110 -112 444
-112 495 0 8 -3 26 -6 40 -7 29 1 11 81 -170 91 -205 248 -508 322 -621 67
-101 176 -219 202 -219 6 0 -6 13 -28 29 -114 82 -296 387 -483 809 l-64 143
74 74 c41 41 81 75 89 75 19 0 101 -53 130 -84 12 -13 26 -36 31 -52 7 -25 8
-26 9 -7 1 29 -57 94 -115 128 -24 14 -44 28 -44 31 0 2 21 30 47 62 26 31 73
98 106 147 43 66 70 96 100 113 38 21 34 23 -8 6 -51 -21 23 86 153 222 l124
128 -6 -50 c-5 -44 -4 -43 8 13 8 39 24 75 43 100 49 62 103 167 102 199 -1
28 -2 27 -8 -6 -9 -44 -39 -100 -86 -165 -34 -46 -36 -47 -31 -20 13 68 36
236 35 257 -1 13 -12 -49 -26 -137 -19 -127 -29 -166 -47 -190 -31 -40 -208
-227 -212 -223 -1 2 12 46 31 99 18 52 43 141 56 197 13 60 26 97 31 89 4 -6
5 4 2 24 -4 25 0 48 15 77 25 49 28 71 3 25 -17 -31 -17 -28 -18 150 -1 200
-17 301 -76 486 -39 125 -123 302 -140 299 -7 -2 -13 6 -13 17 0 28 -44 97
-57 89 -7 -5 -8 -2 -4 5 9 13 -78 133 -138 190 -20 19 -36 41 -36 48 0 7 -5
13 -11 13 -6 0 -36 23 -67 51 -151 138 -369 262 -577 329 -248 79 -654 121
-833 85z m655 -51 c-3 -3 -12 -4 -19 -1 -8 3 -5 6 6 6 11 1 17 -2 13 -5z m198
-51 c44 -14 75 -28 70 -30 -6 -2 -46 10 -90 26 -100 37 -87 40 20 4z m185 -74
c26 -13 30 -18 15 -18 -11 0 -38 11 -60 25 -45 29 -14 24 45 -7z m317 -201
c61 -48 226 -217 243 -248 5 -9 -46 37 -112 103 -67 65 -140 131 -162 145 -52
33 -86 63 -86 75 0 12 38 -12 117 -75z m469 -632 c20 -48 34 -89 32 -92 -6 -6
-65 116 -77 160 -17 63 6 29 45 -68z m69 -210 c15 -53 25 -102 23 -108 -4 -12
-43 115 -54 177 -12 69 4 33 31 -69z m51 -356 c3 -80 2 -170 -4 -200 -9 -54
-9 -54 -20 -27 -9 20 -9 47 -1 105 6 43 9 137 6 212 -3 89 -2 121 4 95 5 -22
11 -105 15 -185z m-3275 32 c-6 -53 -14 -138 -17 -189 -4 -59 -11 -90 -17 -86
-7 4 -8 -1 -3 -13 4 -10 12 -66 17 -124 13 -141 21 -185 48 -247 41 -94 21
-95 -41 -3 -31 47 -64 101 -73 121 -17 36 -17 36 19 114 20 43 34 80 32 82 -2
2 -18 -30 -37 -71 -18 -41 -37 -72 -41 -70 -3 2 -20 40 -37 84 l-31 79 32 101
c17 55 35 100 40 100 4 0 8 -5 8 -11 0 -14 42 -111 46 -106 2 2 -8 30 -21 63
-14 32 -25 68 -25 80 0 20 72 177 93 203 18 22 20 -1 8 -107z m3255 -321 c6
-65 -62 -312 -113 -413 -13 -27 -23 -50 -23 -53 0 -3 -7 -19 -15 -35 -9 -17
-13 -36 -9 -43 4 -7 4 -9 -1 -5 -4 4 -15 2 -23 -5 -13 -10 -14 -8 -7 13 4 14
17 36 28 50 12 14 15 19 7 13 -40 -35 -33 -4 16 68 18 27 37 70 43 97 6 28 22
81 36 118 18 45 27 93 29 139 5 132 5 133 18 111 6 -11 12 -36 14 -55z m-2661
-696 c18 -142 54 -332 83 -437 11 -38 17 -68 15 -68 -11 0 -95 195 -117 274
-23 79 -26 105 -26 261 0 94 3 208 7 251 l8 79 7 -115 c4 -63 14 -173 23 -245z
m2408 24 c-10 -17 -24 -36 -32 -42 -8 -7 -2 7 14 31 32 49 45 57 18 11z
m-2479 -8 c16 -18 17 -32 11 -127 l-8 -108 -26 33 c-24 29 -27 40 -24 95 5 83
12 126 22 126 4 0 16 -9 25 -19z m2416 -82 c-12 -16 -25 -28 -28 -25 -5 6 36
56 45 56 3 0 -5 -14 -17 -31z m-1985 -749 c28 -19 73 -47 100 -63 28 -16 42
-26 32 -23 -10 3 -52 16 -94 28 -63 18 -84 30 -122 68 -25 25 -61 75 -80 111
l-34 64 74 -75 c41 -42 97 -91 124 -110z"/>
<path d="M4846 5245 c-9 -26 -7 -32 5 -12 6 10 9 21 6 23 -2 3 -7 -2 -11 -11z"/>
<path d="M1993 7041 c-7 -11 -23 -21 -35 -24 -21 -4 -21 -4 -2 -6 25 -1 58 22
53 37 -3 8 -9 5 -16 -7z"/>
<path d="M5266 6904 c-42 -75 -76 -138 -74 -140 2 -2 39 58 82 132 42 75 76
138 74 140 -2 2 -39 -58 -82 -132z"/>
<path d="M1828 7023 c7 -3 16 -2 19 1 4 3 -2 6 -13 5 -11 0 -14 -3 -6 -6z"/>
<path d="M1878 7013 c12 -2 30 -2 40 0 9 3 -1 5 -23 4 -22 0 -30 -2 -17 -4z"/>
<path d="M1702 6903 c9 -10 18 -25 21 -33 4 -10 6 -11 6 -2 1 20 -18 52 -31
52 -7 0 -5 -7 4 -17z"/>
<path d="M1733 6800 c0 -25 2 -35 4 -22 2 12 2 32 0 45 -2 12 -4 2 -4 -23z"/>
<path d="M4616 6826 c34 -15 154 -123 154 -139 0 -5 -10 -2 -22 9 -18 16 -18
14 4 -16 41 -55 67 -114 114 -254 25 -72 42 -115 38 -96 -11 58 -74 231 -105
289 -16 30 -27 56 -25 59 3 2 31 -30 64 -72 43 -53 62 -87 68 -118 6 -35 8
-39 13 -20 6 23 7 23 31 -10 13 -18 70 -102 127 -187 57 -85 103 -152 103
-148 0 10 -143 229 -213 326 -33 46 -66 100 -73 120 -7 20 -13 28 -14 18 0
-12 -16 2 -46 40 -97 121 -198 213 -233 213 -9 -1 -2 -7 15 -14z"/>
<path d="M4861 6660 c0 -8 4 -24 9 -35 5 -13 9 -14 9 -5 0 8 -4 24 -9 35 -5
13 -9 14 -9 5z"/>
<path d="M4476 6632 c82 -60 216 -222 396 -480 76 -108 101 -153 106 -185 5
-35 7 -38 12 -18 5 23 10 18 53 -49 32 -50 47 -85 48 -109 1 -31 2 -33 8 -12
7 25 7 25 29 -10 12 -19 22 -30 22 -26 0 4 -11 25 -25 45 -19 28 -25 51 -27
97 -2 59 -2 59 -5 11 l-4 -49 -55 82 c-45 68 -58 96 -71 162 -9 44 -18 77 -20
75 -3 -3 0 -28 6 -57 6 -28 10 -53 8 -55 -2 -2 -32 38 -67 89 -95 138 -221
304 -287 379 -63 71 -138 138 -155 138 -6 0 7 -13 28 -28z"/>
<path d="M1521 6603 c-1 -6 -4 -20 -7 -30 -5 -17 -5 -17 6 0 6 10 9 23 6 30
-3 9 -5 9 -5 0z"/>
<path d="M1477 6494 c-37 -74 -33 -83 4 -10 17 32 29 60 27 62 -2 2 -16 -21
-31 -52z"/>
<path d="M4922 6425 c0 -11 4 -31 8 -45 6 -20 8 -21 8 -5 0 11 -4 31 -8 45 -6
20 -8 21 -8 5z"/>
<path d="M5282 6424 c-12 -8 -27 -25 -33 -37 -8 -14 -1 -10 19 11 38 41 61 39
84 -8 10 -19 18 -28 18 -19 0 21 -38 69 -54 69 -6 0 -22 -7 -34 -16z"/>
<path d="M4942 6330 c0 -14 2 -19 5 -12 2 6 2 18 0 25 -3 6 -5 1 -5 -13z"/>
<path d="M4911 6285 c0 -5 6 -32 13 -60 8 -27 14 -41 14 -30 0 21 -25 107 -27
90z"/>
<path d="M1324 6206 c11 -9 24 -16 30 -16 12 0 7 5 -24 19 -24 11 -24 11 -6
-3z"/>
<path d="M1410 6205 c-14 -8 -20 -14 -14 -15 5 0 19 7 30 15 24 18 16 19 -16
0z"/>
<path d="M1262 6040 c0 -19 2 -27 5 -17 2 9 2 25 0 35 -3 9 -5 1 -5 -18z"/>
<path d="M5082 5985 c0 -16 2 -22 5 -12 2 9 2 23 0 30 -3 6 -5 -1 -5 -18z"/>
<path d="M1271 5995 c0 -5 6 -21 14 -35 8 -14 14 -20 14 -15 0 6 -6 21 -14 35
-8 14 -14 21 -14 15z"/>
<path d="M5480 5985 c0 -22 -72 -90 -143 -137 -34 -22 -54 -37 -44 -34 32 10
133 84 165 121 28 31 42 65 27 65 -3 0 -5 -7 -5 -15z"/>
<path d="M1456 5861 c-14 -32 -26 -62 -26 -67 1 -5 14 20 31 55 16 35 28 66
26 68 -2 2 -16 -23 -31 -56z"/>
<path d="M4992 5900 c0 -14 2 -19 5 -12 2 6 2 18 0 25 -3 6 -5 1 -5 -13z"/>
<path d="M5017 5785 c6 -104 11 -119 12 -30 0 39 -4 79 -8 90 -5 11 -6 -16 -4
-60z"/>
<path d="M1486 5824 c-4 -14 -5 -28 -3 -31 3 -2 8 8 11 23 4 14 5 28 3 31 -3
2 -8 -8 -11 -23z"/>
<path d="M3075 5823 c-195 -24 -420 -71 -604 -127 -46 -14 -87 -23 -92 -20 -5
3 -9 1 -9 -4 0 -10 -52 -32 -73 -32 -6 0 -2 9 8 20 10 11 16 23 13 26 -7 6
-102 -136 -152 -227 -39 -72 -76 -170 -76 -204 0 -11 7 -30 15 -41 14 -18 15
-17 4 8 -16 37 0 97 56 206 77 153 108 194 154 208 23 6 41 11 41 9 0 -1 -16
-47 -36 -101 -42 -117 -84 -284 -84 -335 0 -38 20 -65 42 -56 8 4 7 6 -4 6
-46 2 -29 128 49 356 l48 139 58 19 c32 10 60 17 62 15 3 -2 -15 -49 -39 -104
-62 -141 -96 -255 -95 -317 l2 -52 8 65 c9 81 32 152 95 302 l49 116 75 21
c615 169 1162 125 1485 -119 39 -29 59 -40 45 -25 -39 42 -154 114 -239 150
-182 77 -348 106 -601 103 -96 0 -188 -3 -205 -5z"/>
<path d="M1411 5740 c-7 -23 -14 -64 -16 -93 -4 -47 -4 -46 9 18 8 39 18 80
22 93 3 12 4 22 2 22 -3 0 -10 -18 -17 -40z"/>
<path d="M1473 5745 c0 -22 2 -30 4 -17 2 12 2 30 0 40 -3 9 -5 -1 -4 -23z"/>
<path d="M5083 5680 c0 -36 2 -50 4 -32 2 17 2 47 0 65 -2 17 -4 3 -4 -33z"/>
<path d="M1243 5650 c0 -47 2 -66 4 -42 2 23 2 61 0 85 -2 23 -4 4 -4 -43z"/>
<path d="M2937 5642 c-127 -159 -204 -296 -212 -379 l-4 -48 9 45 c15 73 85
202 168 311 107 141 105 139 99 139 -4 0 -31 -31 -60 -68z"/>
<path d="M2809 5661 c-44 -44 -48 -70 -19 -118 28 -46 34 -41 9 7 -19 35 -20
44 -9 71 7 17 29 41 49 55 20 13 30 24 22 24 -7 0 -31 -17 -52 -39z"/>
<path d="M3480 5663 c-19 -41 -25 -154 -10 -199 14 -42 50 -108 56 -101 2 2
-8 25 -22 51 -34 60 -42 151 -20 221 17 55 16 69 -4 28z"/>
<path d="M5012 5660 c0 -14 2 -19 5 -12 2 6 2 18 0 25 -3 6 -5 1 -5 -13z"/>
<path d="M1471 5629 c1 -24 5 -55 9 -69 5 -15 6 1 3 40 -7 76 -13 93 -12 29z"/>
<path d="M3183 5614 c-33 -72 -42 -154 -21 -186 10 -15 12 -30 7 -43 -4 -11
-8 -44 -8 -73 -1 -46 3 -58 28 -83 16 -16 35 -29 42 -29 8 0 2 8 -11 17 -41
28 -49 45 -50 98 0 69 10 82 49 66 16 -7 36 -11 43 -8 7 3 3 6 -8 6 -12 1 -31
9 -43 19 l-22 17 27 38 c14 21 24 41 21 43 -3 3 -16 -13 -30 -37 -25 -41 -25
-41 -37 -19 -18 33 -7 107 24 169 14 30 24 56 21 59 -2 3 -17 -22 -32 -54z"/>
<path d="M2594 5574 c-81 -145 -123 -295 -106 -376 9 -41 9 -39 10 32 0 111
33 215 109 344 18 32 32 61 29 63 -2 2 -21 -26 -42 -63z"/>
<path d="M2945 5530 c-31 -131 -41 -235 -27 -270 9 -21 10 -17 5 21 -6 51 6
138 38 267 11 46 19 86 16 88 -3 3 -17 -45 -32 -106z"/>
<path d="M3636 5588 c11 -84 35 -147 70 -194 30 -39 39 -62 50 -128 l13 -81
-5 70 c-3 39 -11 106 -19 150 -14 76 -14 77 -10 20 4 -56 3 -59 -12 -40 -32
42 -65 128 -70 186 -3 32 -10 59 -15 59 -4 0 -6 -19 -2 -42z"/>
<path d="M5001 5614 c0 -11 3 -14 6 -6 3 7 2 16 -1 19 -3 4 -6 -2 -5 -13z"/>
<path d="M2641 5527 c-17 -123 -24 -269 -14 -294 5 -14 8 11 8 75 1 53 7 141
14 195 8 54 12 100 9 102 -3 3 -10 -32 -17 -78z"/>
<path d="M5073 5565 c0 -27 2 -38 4 -22 2 15 2 37 0 50 -2 12 -4 0 -4 -28z"/>
<path d="M5243 5589 c9 -5 18 -20 18 -32 1 -18 2 -18 6 -4 5 20 -13 47 -31 47
-6 0 -3 -5 7 -11z"/>
<path d="M4963 5502 c-17 -48 -30 -88 -28 -90 5 -5 66 159 63 168 -2 5 -17
-31 -35 -78z"/>
<path d="M5272 5495 c0 -16 2 -22 5 -12 2 9 2 23 0 30 -3 6 -5 -1 -5 -18z"/>
<path d="M3347 5443 c-8 -84 -8 -153 1 -175 4 -9 8 41 9 113 1 71 0 129 -1
129 -2 0 -6 -30 -9 -67z"/>
<path d="M3550 5501 c0 -24 64 -263 68 -253 3 10 -56 252 -64 261 -2 2 -4 -1
-4 -8z"/>
<path d="M5063 5475 c0 -22 2 -30 4 -17 2 12 2 30 0 40 -3 9 -5 -1 -4 -23z"/>
<path d="M3810 5474 c0 -22 64 -276 68 -266 2 6 -11 68 -28 139 -29 117 -40
151 -40 127z"/>
<path d="M3084 5405 c-43 -64 -55 -129 -29 -160 l17 -20 -7 20 c-17 47 -16 67
9 117 14 29 33 63 42 76 9 12 14 22 10 22 -3 0 -22 -25 -42 -55z"/>
<path d="M5263 5415 c0 -22 2 -30 4 -17 2 12 2 30 0 40 -3 9 -5 -1 -4 -23z"/>
<path d="M1237 5353 c-9 -25 -16 -48 -14 -50 2 -2 12 17 22 42 9 26 15 48 13
50 -2 2 -12 -17 -21 -42z"/>
<path d="M5252 5345 c0 -16 2 -22 5 -12 2 9 2 23 0 30 -3 6 -5 -1 -5 -18z"/>
<path d="M1196 5247 c-23 -61 -19 -72 5 -13 11 27 18 50 16 53 -2 2 -12 -16
-21 -40z"/>
<path d="M5331 5247 c-2 -35 -55 -128 -114 -200 -41 -49 -48 -61 -23 -37 67
63 155 212 143 242 -3 8 -6 6 -6 -5z"/>
<path d="M4901 5225 c0 -5 6 -21 14 -35 8 -14 14 -20 14 -15 0 6 -6 21 -14 35
-8 14 -14 21 -14 15z"/>
<path d="M1285 4995 c-3 -31 -5 -59 -2 -61 3 -3 8 20 12 51 3 31 5 59 2 61 -3
3 -8 -20 -12 -51z"/>
<path d="M5205 4988 c-22 -16 -82 -52 -133 -80 -51 -28 -91 -52 -89 -54 6 -7
204 107 240 138 42 36 32 34 -18 -4z"/>
<path d="M4982 4955 c0 -16 2 -22 5 -12 2 9 2 23 0 30 -3 6 -5 -1 -5 -18z"/>
<path d="M2697 4923 c56 -53 78 -98 64 -132 -11 -24 -10 -25 4 -7 18 23 18 27
5 60 -11 30 -88 116 -103 116 -6 0 8 -17 30 -37z"/>
<path d="M1272 4895 c0 -16 2 -22 5 -12 2 9 2 23 0 30 -3 6 -5 -1 -5 -18z"/>
<path d="M3479 4894 c-17 -21 -14 -82 6 -125 8 -19 12 -25 9 -14 -4 11 -9 46
-12 77 -4 54 -3 58 19 67 16 6 18 10 8 10 -9 1 -23 -6 -30 -15z"/>
<path d="M3685 4891 c49 -12 93 -39 100 -62 4 -11 9 -18 12 -15 3 3 -2 17 -11
32 -19 28 -72 55 -108 53 -19 -1 -17 -2 7 -8z"/>
<path d="M2465 4855 c-14 -13 -25 -34 -24 -47 1 -18 3 -16 10 10 13 46 47 59
106 44 25 -7 48 -11 50 -8 6 6 -66 26 -95 26 -13 0 -34 -11 -47 -25z"/>
<path d="M3848 4862 c20 -22 25 -21 16 2 -3 9 -12 16 -20 16 -11 0 -10 -4 4
-18z"/>
<path d="M4870 4800 c-52 -27 -92 -49 -87 -49 10 -1 187 88 187 94 0 7 5 9
-100 -45z"/>
<path d="M5016 4830 c4 -8 11 -30 15 -50 7 -35 7 -35 8 -4 0 16 -6 39 -15 50
-8 10 -12 12 -8 4z"/>
<path d="M3872 4800 c0 -19 2 -27 5 -17 2 9 2 25 0 35 -3 9 -5 1 -5 -18z"/>
<path d="M2565 4755 c-16 -15 -25 -36 -25 -55 0 -19 9 -40 25 -55 15 -16 36
-25 55 -25 19 0 40 9 55 25 16 15 25 36 25 55 0 19 -9 40 -25 55 -15 16 -36
25 -55 25 -19 0 -40 -9 -55 -25z"/>
<path d="M3602 4757 c-50 -53 -13 -137 59 -137 47 0 79 34 79 81 0 71 -90 107
-138 56z"/>
<path d="M3404 4725 c-8 -20 4 -97 22 -143 8 -20 12 -26 9 -12 -27 122 -28
133 -17 151 8 12 9 19 2 19 -6 0 -13 -7 -16 -15z"/>
<path d="M4881 4714 c-2 -42 -50 -112 -105 -153 -25 -19 -44 -37 -41 -39 3 -3
26 13 52 35 63 52 106 122 100 159 l-4 29 -2 -31z"/>
<path d="M5033 4690 c0 -25 2 -35 4 -22 2 12 2 32 0 45 -2 12 -4 2 -4 -23z"/>
<path d="M2386 4694 c-8 -20 -6 -120 3 -159 4 -17 7 16 6 72 0 57 -1 103 -1
103 -1 0 -5 -7 -8 -16z"/>
<path d="M1420 4634 c-73 -52 -101 -77 -55 -49 48 29 134 95 124 95 -3 0 -34
-21 -69 -46z"/>
<path d="M3801 4625 c-24 -31 -41 -59 -38 -61 2 -3 23 21 47 52 23 30 40 58
37 60 -2 3 -23 -21 -46 -51z"/>
<path d="M2738 4630 c-3 -19 -9 -44 -13 -55 -3 -11 1 -7 10 8 9 15 15 40 13
55 -3 25 -4 24 -10 -8z"/>
<path d="M5022 4620 c0 -14 2 -19 5 -12 2 6 2 18 0 25 -3 6 -5 1 -5 -13z"/>
<path d="M3501 4555 c4 -22 81 -65 114 -64 11 0 -1 7 -27 15 -27 8 -56 26 -68
42 -18 22 -22 24 -19 7z"/>
<path d="M2543 4526 c32 -29 74 -34 103 -10 18 15 18 15 -3 5 -33 -17 -67 -13
-99 10 l-29 21 28 -26z"/>
<path d="M3757 4491 c-6 -25 -49 -53 -95 -62 -32 -6 -33 -7 -9 -8 38 -1 104
34 112 60 4 11 5 23 2 25 -2 3 -7 -4 -10 -15z"/>
<path d="M2706 4462 c-4 -10 -16 -24 -29 -30 -17 -8 -18 -11 -5 -11 18 -1 55
45 45 55 -3 3 -8 -3 -11 -14z"/>
<path d="M1642 4428 c-26 -29 -52 -78 -51 -98 0 -8 5 -1 11 15 6 17 23 47 40
68 32 41 33 49 0 15z"/>
<path d="M3121 4242 c-36 -153 -47 -271 -30 -307 21 -44 51 -43 96 0 l38 37
-40 -31 c-80 -63 -104 -29 -86 119 6 52 21 135 32 183 12 49 19 90 17 93 -3 2
-15 -40 -27 -94z"/>
<path d="M4196 4097 c2 -37 18 -119 34 -182 32 -127 131 -437 137 -431 3 2
-20 81 -51 174 -64 199 -91 299 -111 419 -14 85 -14 86 -9 20z"/>
<path d="M3383 3829 c-76 -61 -145 -118 -153 -127 -33 -33 17 3 145 106 142
114 162 132 153 132 -3 0 -69 -50 -145 -111z"/>
<path d="M3425 3488 c3 -7 74 -269 160 -582 85 -313 157 -571 160 -574 3 -3 7
-3 9 -1 2 2 -52 207 -120 454 -188 688 -196 715 -205 715 -5 0 -6 -6 -4 -12z"/>
<path d="M4470 3385 c-1 -16 124 -547 128 -537 2 8 -112 510 -122 537 -3 7 -5
7 -6 0z"/>
<path d="M4543 3247 c61 -90 97 -259 130 -617 3 -25 4 -21 5 15 3 72 -25 282
-52 406 -25 107 -60 193 -91 219 -10 8 -6 -2 8 -23z"/>
<path d="M1593 2010 c0 -36 2 -50 4 -32 2 17 2 47 0 65 -2 17 -4 3 -4 -33z"/>
<path d="M429 2021 c-33 -32 -39 -45 -39 -79 0 -106 85 -157 186 -113 55 25
55 39 -1 15 -93 -39 -176 36 -145 130 24 73 106 100 155 51 29 -29 33 -79 9
-114 -23 -32 -35 -14 -24 34 5 22 10 46 10 53 0 21 -74 15 -104 -9 -23 -18
-27 -28 -24 -63 l3 -41 68 -2 c61 -2 72 1 93 22 35 35 33 88 -5 126 -26 25
-37 29 -86 29 -53 0 -60 -3 -96 -39z m103 -62 c-6 -59 -42 -83 -42 -28 0 37
17 72 33 66 7 -2 11 -18 9 -38z"/>
<path d="M816 1993 c-6 -14 -5 -15 5 -6 7 7 10 15 7 18 -3 3 -9 -2 -12 -12z"/>
<path d="M1070 2000 c0 -5 5 -10 11 -10 5 0 7 5 4 10 -3 6 -8 10 -11 10 -2 0
-4 -4 -4 -10z"/>
<path d="M1592 1915 c0 -16 2 -22 5 -12 2 9 2 23 0 30 -3 6 -5 -1 -5 -18z"/>
</g>
</svg>
