<?xml version="1.0" standalone="no"?>
<!DOCTYPE svg PUBLIC "-//W3C//DTD SVG 20010904//EN"
 "http://www.w3.org/TR/2001/REC-SVG-20010904/DTD/svg10.dtd">
<svg version="1.0" xmlns="http://www.w3.org/2000/svg"
 width="200" height="55" viewBox="0 0 300.000000 150.000000"
 preserveAspectRatio="xMidYMid meet">

<g transform="translate(0.000000,150.000000) scale(0.100000,-0.100000)"
fill="#000000" stroke="none">
<path d="M1610 1312 c-14 -4 -43 -17 -65 -28 -22 -12 -57 -27 -77 -33 -49 -16
-169 -144 -186 -197 -24 -78 -36 -234 -22 -304 13 -67 49 -146 78 -167 21 -17
56 -17 49 0 -2 7 -2 54 2 105 5 70 3 96 -6 104 -24 19 -15 66 16 89 16 12 31
30 34 40 3 10 19 27 36 37 26 16 59 20 189 25 153 6 158 5 210 -20 30 -14 57
-35 61 -47 37 -98 48 -143 39 -166 -9 -24 -2 -138 11 -174 6 -16 12 -12 47 27
46 53 72 122 89 232 19 136 -16 248 -107 335 -79 76 -79 76 -128 98 -82 37
-215 58 -270 44z"/>
<path d="M1511 676 c-9 -10 -8 -16 3 -25 10 -9 16 -8 25 3 9 10 8 16 -3 25
-10 9 -16 8 -25 -3z"/>
<path d="M1783 674 c-8 -21 13 -42 28 -27 13 13 5 43 -11 43 -6 0 -13 -7 -17
-16z"/>
</g>
</svg>
